<?xml version="1.0" encoding="UTF-8"?>
<svg id="Layer_1" xmlns="http://www.w3.org/2000/svg" version="1.1" viewBox="0 0 121.9 38.3">
  <!-- Generator: Adobe Illustrator 30.1.0, SVG Export Plug-In . SVG Version: 2.1.1 Build 136)  -->
  <defs>
    <style>
      .st0 {
        fill: #424242;
      }

      .st0, .st1, .st2, .st3 {
        isolation: isolate;
      }

      .st0, .st1, .st3 {
        mix-blend-mode: overlay;
      }

      .st4 {
        fill: #1e1e1e;
      }

      .st1 {
        fill: #6cb8ff;
      }

      .st3 {
        fill: #1fc4a7;
      }
    </style>
  </defs>
  <g class="st2">
    <g id="Layer_2">
      <g class="st2">
        <g class="st2">
          <g class="st2">
            <path class="st4" d="M17.3,22.4c2.1,0,3.2,1.1,3.2,3.2v6.2c0,2.1-1.1,3.2-3.2,3.2h-2.7v-12.6h2.7ZM16.4,33.2h.8c.9,0,1.3-.5,1.3-1.5v-6c0-1.1-.4-1.5-1.3-1.5h-.8v9.1Z"/>
            <path class="st4" d="M28.2,25.4v6.6c0,2-1.2,3.2-3.1,3.2s-3.1-1.2-3.1-3.2v-6.6c0-2,1.2-3.2,3.1-3.2s3.1,1.2,3.1,3.2ZM24,25.4v6.6c0,.9.4,1.4,1.2,1.4s1.2-.5,1.2-1.4v-6.6c0-.9-.4-1.4-1.2-1.4s-1.2.5-1.2,1.4Z"/>
            <path class="st4" d="M34.4,35l-2.5-8.4h0v8.4h-1.8v-12.6h2.1l2.3,7.5h0v-7.5h1.8v12.6h-1.9Z"/>
          </g>
        </g>
        <g class="st2">
          <g class="st2">
            <path class="st4" d="M42.5,35l-.4-2.9h-2.1l-.4,2.9h-1.9l2.2-12.6h2.4l2.2,12.6h-1.9ZM40.2,30.4h1.6l-.8-5.3h0l-.8,5.3Z"/>
          </g>
        </g>
        <g class="st2">
          <g class="st2">
            <path class="st4" d="M48.3,24.2v10.8h-1.9v-10.8h-2v-1.8h6v1.8h-2Z"/>
            <path class="st4" d="M53.5,24.2v3.6h2.8v1.8h-2.8v3.7h3.5v1.8h-5.4v-12.6h5.4v1.8h-3.5Z"/>
            <path class="st4" d="M63.6,33.2v1.8h-5.1v-12.6h1.9v10.8h3.2Z"/>
            <path class="st4" d="M70,33.2v1.8h-5.1v-12.6h1.9v10.8h3.2Z"/>
            <path class="st4" d="M71.2,35v-12.6h1.9v12.6h-1.9Z"/>
            <path class="st4" d="M81.3,22.4c2.1,0,3.2,1.1,3.2,3.2v6.2c0,2.1-1.1,3.2-3.2,3.2h-2.7v-12.6h2.7ZM80.5,33.2h.8c.9,0,1.3-.5,1.3-1.5v-6c0-1.1-.4-1.5-1.3-1.5h-.8v9.1Z"/>
            <path class="st4" d="M86.3,35v-12.6h1.9v12.6h-1.9Z"/>
            <path class="st4" d="M96.1,25.2v.9h-1.8c0,0,0-.7,0-.7,0-1-.4-1.5-1.1-1.5s-1.1.5-1.1,1.3v6.9c0,.8.4,1.3,1.1,1.3s1.1-.5,1.1-1.5v-2.2h-1.1v-1.8h3v4.1c0,1.9-1.1,3-3,3s-3-1.1-3-3v-6.9c0-1.9,1.1-3,3-3s3,1.1,3,3Z"/>
            <path class="st4" d="M97.9,35v-12.6h1.9v12.6h-1.9Z"/>
          </g>
        </g>
        <g class="st2">
          <g class="st2">
            <path class="st4" d="M104.8,24.2v10.8h-1.9v-10.8h-2v-1.8h6v1.8h-2Z"/>
          </g>
        </g>
        <g class="st2">
          <g class="st2">
            <path class="st4" d="M111.7,35l-.4-2.9h-2.1l-.4,2.9h-1.9l2.2-12.6h2.4l2.2,12.6h-1.9ZM109.4,30.4h1.6l-.8-5.3h0l-.8,5.3Z"/>
          </g>
        </g>
        <g class="st2">
          <g class="st2">
            <path class="st4" d="M120,33.2v1.8h-5.1v-12.6h1.9v10.8h3.2Z"/>
          </g>
        </g>
      </g>
      <path class="st0" d="M10.6,1.7l13.4,19c.2.3,0,.9-.3,1l-13.9,1.9c-.2,0-.4-.2-.4-.5l.4-20.8c0-.6.5-1,.8-.6h0Z"/>
      <path class="st3" d="M6.4,11.4l-.9,16.8c0,.4.5.6.8.4l7.8-5.5c.2-.1.3-.4.1-.6l-6.9-11.3c-.2-.4-1-.3-1,.2h0Z"/>
      <path class="st1" d="M12,19.7l11.5.7c.6,0,.8.9.4,1.2l-19.3,13.5c-.5.4-1.4,0-1.1-.6l7.8-14.5c.1-.2.4-.3.6-.3h0Z"/>
    </g>
  </g>
</svg>